<svg version="1.1" id="Layer_1" xmlns="http://www.w3.org/2000/svg" xmlns:xlink="http://www.w3.org/1999/xlink" x="0px" y="0px"
	 width="100%" viewBox="0 0 1404 1418" enable-background="new 0 0 1404 1418" xml:space="preserve">
<path fill="#000000" opacity="1.000000" stroke="none" 
	d="
M737.000000,1419.000000 
	C491.333374,1419.000000 246.166748,1419.000000 1.000099,1419.000000 
	C1.000066,946.333435 1.000066,473.666931 1.000033,1.000289 
	C468.999786,1.000193 936.999573,1.000193 1404.999512,1.000096 
	C1404.999756,473.666382 1404.999756,946.332764 1404.999878,1418.999512 
	C1182.500000,1419.000000 960.000000,1419.000000 737.000000,1419.000000 
M342.130035,835.578674 
	C342.289917,833.839844 342.919891,831.989441 342.537506,830.379395 
	C338.339142,812.702148 333.379333,795.181702 329.859528,777.374939 
	C327.014526,762.982117 324.730011,748.297424 324.196564,733.669312 
	C323.299622,709.071472 322.823212,684.351990 326.963348,659.909607 
	C329.326172,645.960266 331.880737,632.027161 334.933502,618.215942 
	C337.448242,606.838928 340.823273,595.652161 344.433685,583.881897 
	C352.956573,558.362000 364.534485,534.277588 377.908905,510.952911 
	C395.338654,480.555878 416.613037,453.133179 441.306030,428.422089 
	C451.770538,417.949951 463.308136,408.524353 474.615112,398.925995 
	C491.022034,384.998413 508.870728,373.049591 527.742188,362.788544 
	C550.846313,350.226013 574.750977,339.505188 600.024170,331.752869 
	C623.761047,324.471863 647.781433,319.185913 672.491943,316.914825 
	C677.482422,316.456177 682.432617,315.559052 688.265564,314.971344 
	C705.120667,314.925140 721.975830,314.878937 739.637756,315.154968 
	C749.697693,316.412506 759.864746,317.119110 769.794250,319.048004 
	C787.713074,322.529022 805.738464,325.864166 823.272583,330.835876 
	C856.653625,340.300873 887.595337,355.547028 916.212891,375.020813 
	C931.214783,385.229431 944.929871,397.336914 959.140259,408.694275 
	C961.966614,410.953125 963.966980,411.664795 966.996643,408.633240 
	C980.038452,395.583374 993.407104,382.860962 1006.536987,369.898010 
	C1017.672058,358.904480 1028.618774,347.720490 1039.690674,336.662720 
	C1076.093018,300.306885 1112.498657,263.954529 1148.966064,227.663971 
	C1151.218262,225.422531 1151.638428,223.847122 1149.071411,221.599335 
	C1142.241577,215.618835 1135.844238,209.108063 1128.738525,203.486313 
	C1113.503052,191.432800 1098.090332,179.588638 1082.456543,168.056915 
	C1059.939209,151.447922 1035.960449,137.091309 1011.171631,124.194916 
	C996.439819,116.530777 981.201599,109.805305 966.004639,103.078827 
	C944.796143,93.691483 922.900940,86.241760 900.621155,79.701241 
	C865.901611,69.508842 830.771729,61.644367 794.747925,58.021736 
	C777.067505,56.243752 759.391235,53.823990 741.663879,53.269207 
	C720.934814,52.620491 700.134827,53.277706 679.398071,54.144070 
	C663.457947,54.810024 647.542664,56.433670 631.663696,58.085968 
	C618.797729,59.424744 605.831970,60.641918 593.213562,63.333912 
	C571.872314,67.886810 550.715820,73.350258 529.581726,78.817848 
	C501.559082,86.067581 474.499023,96.252411 448.204193,108.178123 
	C427.361420,117.631134 406.781342,127.879997 386.942139,139.269211 
	C366.418182,151.051529 346.141876,163.580078 327.190826,177.705521 
	C304.929504,194.298340 283.137695,211.841202 263.113434,231.029114 
	C241.117844,252.105988 220.600525,274.876312 200.897186,298.143524 
	C186.914673,314.655212 175.077255,333.026978 162.779602,350.910400 
	C148.599319,371.531525 136.161407,393.219604 125.009071,416.485901 
	C111.928741,441.136536 101.130936,466.763519 91.960854,493.108551 
	C82.555382,520.129883 74.106964,547.403076 68.783737,575.570679 
	C66.673416,586.737366 63.876873,597.791687 62.194141,609.017212 
	C60.325439,621.483398 59.242561,634.074524 58.055927,646.633789 
	C56.898315,658.885803 55.185345,671.169312 55.228317,683.433716 
	C55.322403,710.285583 56.259438,737.137695 57.100693,763.981934 
	C57.373238,772.678894 57.938538,781.423218 59.218349,790.019531 
	C61.478424,805.200134 63.742073,820.432556 67.177071,835.373657 
	C72.589607,858.916504 78.506599,882.367615 85.058182,905.618530 
	C94.120438,937.779480 107.294991,968.397705 121.996849,998.351257 
	C122.986656,1000.367859 125.351585,1001.709534 126.630905,1003.924377 
	C126.792740,1005.785583 126.466270,1007.875977 127.211349,1009.463440 
	C129.161255,1013.617676 131.498703,1017.599365 133.824478,1021.566101 
	C144.262726,1039.369141 153.887680,1057.728638 165.452713,1074.769775 
	C178.126541,1093.444702 192.171387,1111.248169 206.433334,1128.768433 
	C218.704773,1143.843384 231.777786,1158.311646 245.149841,1172.429077 
	C254.576889,1182.381714 264.995880,1191.410767 275.163971,1200.640503 
	C282.736816,1207.514771 290.388977,1214.339478 298.414459,1220.667969 
	C309.986328,1229.793213 321.536865,1239.039429 333.800812,1247.171875 
	C354.405884,1260.835815 374.918976,1274.869751 396.662872,1286.523804 
	C421.209259,1299.679810 446.781097,1311.069092 472.462311,1321.911621 
	C490.296997,1329.441284 508.877380,1335.404297 527.477417,1340.865723 
	C546.127380,1346.341797 565.156738,1350.585327 584.132751,1354.868774 
	C595.456238,1357.424683 606.950623,1359.351562 618.453430,1360.946777 
	C629.036499,1362.414551 639.725037,1363.164551 650.382751,1364.041016 
	C663.693176,1365.135986 677.021423,1366.871826 690.338745,1366.842529 
	C715.882874,1366.786255 741.428528,1365.794678 766.965698,1364.954956 
	C777.497375,1364.608765 788.093384,1364.268188 798.511047,1362.838623 
	C816.647278,1360.350220 834.830200,1357.762573 852.697754,1353.861450 
	C877.546631,1348.436279 902.401367,1342.684082 926.728943,1335.335083 
	C946.703613,1329.301147 966.210083,1321.418213 985.377930,1313.096680 
	C1004.474304,1304.806152 1023.401550,1295.847046 1041.479370,1285.558228 
	C1065.644653,1271.804688 1089.114136,1256.757568 1110.700073,1239.068970 
	C1122.776001,1229.173218 1134.583496,1218.949951 1146.862915,1208.369141 
	C1148.001587,1207.304443 1149.163452,1206.263672 1150.275391,1205.171753 
	C1171.827515,1184.008667 1192.855591,1162.394287 1211.231323,1138.305664 
	C1227.932251,1116.412720 1243.575684,1093.813843 1256.925903,1069.750854 
	C1274.115112,1038.768311 1289.430176,1006.875916 1301.263184,973.389404 
	C1311.178345,945.329834 1319.741089,916.882019 1325.882935,887.761902 
	C1329.283813,871.637268 1332.355103,855.419128 1334.821411,839.129028 
	C1336.809692,825.995972 1337.838989,812.706543 1338.984619,799.459717 
	C1340.473267,782.248901 1342.283081,765.031494 1342.831543,747.781250 
	C1343.797363,717.415955 1342.728638,687.062256 1339.959229,656.788879 
	C1339.316528,649.763672 1338.848633,642.711548 1337.884644,635.729126 
	C1336.076904,622.634949 1333.534058,609.626465 1332.202881,596.490479 
	C1331.703613,591.563110 1330.048950,590.930847 1325.866699,590.932434 
	C1123.063965,591.009705 920.261169,590.999939 717.458374,590.999878 
	C715.708191,590.999878 713.958008,590.999878 712.252808,590.999878 
	C712.252808,675.672424 712.252808,759.600098 712.252808,844.000122 
	C771.264404,844.000122 830.041748,843.826660 888.817505,844.048950 
	C947.502136,844.270874 1006.185181,844.889038 1064.989014,845.334412 
	C1064.989014,846.614502 1065.167358,847.648621 1064.962891,848.600464 
	C1059.855957,872.364807 1052.590210,895.425232 1042.223022,917.448364 
	C1030.398682,942.566895 1015.454285,965.636597 997.090881,986.510559 
	C982.966003,1002.566528 967.707458,1017.372375 950.625183,1030.265381 
	C945.063599,1034.463013 939.504883,1038.664673 933.230347,1042.959961 
	C921.627625,1049.700317 910.187256,1056.741089 898.387024,1063.115845 
	C876.676941,1074.843994 853.679321,1083.459961 829.913330,1089.993896 
	C820.625061,1092.547485 811.294983,1095.093262 801.836792,1096.850342 
	C787.365601,1099.538940 772.805603,1101.840210 758.208740,1103.729614 
	C748.418579,1104.996826 738.507263,1105.676025 728.635620,1105.867798 
	C718.738342,1106.060181 708.824890,1105.233154 698.914917,1105.016357 
	C690.260742,1104.826904 681.601624,1104.864868 672.831604,1104.426636 
	C672.665527,1104.166626 672.435120,1104.082886 671.686035,1104.039062 
	C671.686035,1104.039062 671.211670,1104.036133 670.696716,1103.338501 
	C668.111694,1103.048584 665.518433,1102.817871 662.943298,1102.457397 
	C655.270264,1101.383301 647.604492,1100.258301 639.603516,1099.033447 
	C639.603516,1099.033447 639.250671,1099.050293 638.760864,1098.386963 
	C635.853149,1097.977905 632.945435,1097.568848 629.343384,1096.784790 
	C607.188538,1090.746582 584.769165,1085.491455 564.140625,1074.910156 
	C546.525513,1065.874634 528.468018,1057.586548 511.437653,1047.556152 
	C491.633942,1035.892212 473.070801,1022.205994 456.663513,1005.954102 
	C442.790771,992.212646 428.529022,978.738037 415.894623,963.905823 
	C401.811615,947.372803 389.596466,929.365479 378.725861,910.381409 
	C365.817139,887.838013 354.603363,864.650391 345.982666,840.166687 
	C345.454468,838.666443 343.617828,837.626831 342.130035,835.578674 
z"/>
<path fill="#EA4335" opacity="1.000000" stroke="none" 
	d="
M687.401367,314.864075 
	C682.432617,315.559052 677.482422,316.456177 672.491943,316.914825 
	C647.781433,319.185913 623.761047,324.471863 600.024170,331.752869 
	C574.750977,339.505188 550.846313,350.226013 527.742188,362.788544 
	C508.870728,373.049591 491.022034,384.998413 474.615112,398.925995 
	C463.308136,408.524353 451.770538,417.949951 441.306030,428.422089 
	C416.613037,453.133179 395.338654,480.555878 377.908905,510.952911 
	C364.534485,534.277588 352.956573,558.362000 343.804932,583.992554 
	C319.496368,565.786682 295.803833,547.486633 272.139740,529.149780 
	C234.008957,499.602997 195.915115,470.008514 157.765366,440.486237 
	C146.986435,432.144928 136.067108,423.985046 125.212189,415.741943 
	C136.161407,393.219604 148.599319,371.531525 162.779602,350.910400 
	C175.077255,333.026978 186.914673,314.655212 200.897186,298.143524 
	C220.600525,274.876312 241.117844,252.105988 263.113434,231.029114 
	C283.137695,211.841202 304.929504,194.298340 327.190826,177.705521 
	C346.141876,163.580078 366.418182,151.051529 386.942139,139.269211 
	C406.781342,127.879997 427.361420,117.631134 448.204193,108.178123 
	C474.499023,96.252411 501.559082,86.067581 529.581726,78.817848 
	C550.715820,73.350258 571.872314,67.886810 593.213562,63.333912 
	C605.831970,60.641918 618.797729,59.424744 631.663696,58.085968 
	C647.542664,56.433670 663.457947,54.810024 679.398071,54.144070 
	C700.134827,53.277706 720.934814,52.620491 741.663879,53.269207 
	C759.391235,53.823990 777.067505,56.243752 794.747925,58.021736 
	C830.771729,61.644367 865.901611,69.508842 900.621155,79.701241 
	C922.900940,86.241760 944.796143,93.691483 966.004639,103.078827 
	C981.201599,109.805305 996.439819,116.530777 1011.171631,124.194916 
	C1035.960449,137.091309 1059.939209,151.447922 1082.456543,168.056915 
	C1098.090332,179.588638 1113.503052,191.432800 1128.738525,203.486313 
	C1135.844238,209.108063 1142.241577,215.618835 1149.071411,221.599335 
	C1151.638428,223.847122 1151.218262,225.422531 1148.966064,227.663971 
	C1112.498657,263.954529 1076.093018,300.306885 1039.690674,336.662720 
	C1028.618774,347.720490 1017.672058,358.904480 1006.536987,369.898010 
	C993.407104,382.860962 980.038452,395.583374 966.996643,408.633240 
	C963.966980,411.664795 961.966614,410.953125 959.140259,408.694275 
	C944.929871,397.336914 931.214783,385.229431 916.212891,375.020813 
	C887.595337,355.547028 856.653625,340.300873 823.272583,330.835876 
	C805.738464,325.864166 787.713074,322.529022 769.794250,319.048004 
	C759.864746,317.119110 749.697693,316.412506 738.867798,314.856567 
	C723.319824,314.373993 708.541992,314.152649 693.763428,314.047455 
	C691.644775,314.032349 689.522156,314.577942 687.401367,314.864075 
z"/>
<path fill="#35A859" opacity="1.000000" stroke="none" 
	d="
M639.250671,1099.050293 
	C639.250671,1099.050293 639.603516,1099.033447 640.042053,1099.345215 
	C650.724304,1101.116821 660.967957,1102.576416 671.211670,1104.036133 
	C671.211670,1104.036133 671.686035,1104.039062 672.047974,1104.211182 
	C672.594849,1104.514648 672.773071,1104.654297 672.944702,1104.802368 
	C681.601624,1104.864868 690.260742,1104.826904 698.914917,1105.016357 
	C708.824890,1105.233154 718.738342,1106.060181 728.635620,1105.867798 
	C738.507263,1105.676025 748.418579,1104.996826 758.208740,1103.729614 
	C772.805603,1101.840210 787.365601,1099.538940 801.836792,1096.850342 
	C811.294983,1095.093262 820.625061,1092.547485 829.913330,1089.993896 
	C853.679321,1083.459961 876.676941,1074.843994 898.387024,1063.115845 
	C910.187256,1056.741089 921.627625,1049.700317 933.797180,1043.184570 
	C955.937439,1060.127930 977.514832,1076.841797 999.083313,1093.567017 
	C1039.857666,1125.185303 1080.652832,1156.776611 1121.376953,1188.459473 
	C1129.894287,1195.085938 1138.140747,1202.060181 1146.512085,1208.874268 
	C1134.583496,1218.949951 1122.776001,1229.173218 1110.700073,1239.068970 
	C1089.114136,1256.757568 1065.644653,1271.804688 1041.479370,1285.558228 
	C1023.401550,1295.847046 1004.474304,1304.806152 985.377930,1313.096680 
	C966.210083,1321.418213 946.703613,1329.301147 926.728943,1335.335083 
	C902.401367,1342.684082 877.546631,1348.436279 852.697754,1353.861450 
	C834.830200,1357.762573 816.647278,1360.350220 798.511047,1362.838623 
	C788.093384,1364.268188 777.497375,1364.608765 766.965698,1364.954956 
	C741.428528,1365.794678 715.882874,1366.786255 690.338745,1366.842529 
	C677.021423,1366.871826 663.693176,1365.135986 650.382751,1364.041016 
	C639.725037,1363.164551 629.036499,1362.414551 618.453430,1360.946777 
	C606.950623,1359.351562 595.456238,1357.424683 584.132751,1354.868774 
	C565.156738,1350.585327 546.127380,1346.341797 527.477417,1340.865723 
	C508.877380,1335.404297 490.296997,1329.441284 472.462311,1321.911621 
	C446.781097,1311.069092 421.209259,1299.679810 396.662872,1286.523804 
	C374.918976,1274.869751 354.405884,1260.835815 333.800812,1247.171875 
	C321.536865,1239.039429 309.986328,1229.793213 298.414459,1220.667969 
	C290.388977,1214.339478 282.736816,1207.514771 275.163971,1200.640503 
	C264.995880,1191.410767 254.576889,1182.381714 245.149841,1172.429077 
	C231.777786,1158.311646 218.704773,1143.843384 206.433334,1128.768433 
	C192.171387,1111.248169 178.126541,1093.444702 165.452713,1074.769775 
	C153.887680,1057.728638 144.262726,1039.369141 133.824478,1021.566101 
	C131.498703,1017.599365 129.161255,1013.617676 127.211349,1009.463440 
	C126.466270,1007.875977 126.792740,1005.785583 127.171341,1003.484985 
	C129.984741,1001.206970 132.227295,999.329163 134.535080,997.535339 
	C199.222626,947.253174 263.913086,896.974792 328.617615,846.714478 
	C333.150879,843.193237 337.796570,839.816772 342.389954,836.372925 
	C343.617828,837.626831 345.454468,838.666443 345.982666,840.166687 
	C354.603363,864.650391 365.817139,887.838013 378.725861,910.381409 
	C389.596466,929.365479 401.811615,947.372803 415.894623,963.905823 
	C428.529022,978.738037 442.790771,992.212646 456.663513,1005.954102 
	C473.070801,1022.205994 491.633942,1035.892212 511.437653,1047.556152 
	C528.468018,1057.586548 546.525513,1065.874634 564.140625,1074.910156 
	C584.769165,1085.491455 607.188538,1090.746582 629.957153,1097.226318 
	C633.464233,1098.128540 636.357422,1098.589478 639.250671,1099.050293 
z"/>
<path fill="#4185F1" opacity="1.000000" stroke="none" 
	d="
M1146.687500,1208.621704 
	C1138.140747,1202.060181 1129.894287,1195.085938 1121.376953,1188.459473 
	C1080.652832,1156.776611 1039.857666,1125.185303 999.083313,1093.567017 
	C977.514832,1076.841797 955.937439,1060.127930 934.154419,1043.136841 
	C939.504883,1038.664673 945.063599,1034.463013 950.625183,1030.265381 
	C967.707458,1017.372375 982.966003,1002.566528 997.090881,986.510559 
	C1015.454285,965.636597 1030.398682,942.566895 1042.223022,917.448364 
	C1052.590210,895.425232 1059.855957,872.364807 1064.962891,848.600464 
	C1065.167358,847.648621 1064.989014,846.614502 1064.989014,845.334412 
	C1006.185181,844.889038 947.502136,844.270874 888.817505,844.048950 
	C830.041748,843.826660 771.264404,844.000122 712.252808,844.000122 
	C712.252808,759.600098 712.252808,675.672424 712.252808,590.999878 
	C713.958008,590.999878 715.708191,590.999878 717.458374,590.999878 
	C920.261169,590.999939 1123.063965,591.009705 1325.866699,590.932434 
	C1330.048950,590.930847 1331.703613,591.563110 1332.202881,596.490479 
	C1333.534058,609.626465 1336.076904,622.634949 1337.884644,635.729126 
	C1338.848633,642.711548 1339.316528,649.763672 1339.959229,656.788879 
	C1342.728638,687.062256 1343.797363,717.415955 1342.831543,747.781250 
	C1342.283081,765.031494 1340.473267,782.248901 1338.984619,799.459717 
	C1337.838989,812.706543 1336.809692,825.995972 1334.821411,839.129028 
	C1332.355103,855.419128 1329.283813,871.637268 1325.882935,887.761902 
	C1319.741089,916.882019 1311.178345,945.329834 1301.263184,973.389404 
	C1289.430176,1006.875916 1274.115112,1038.768311 1256.925903,1069.750854 
	C1243.575684,1093.813843 1227.932251,1116.412720 1211.231323,1138.305664 
	C1192.855591,1162.394287 1171.827515,1184.008667 1150.275391,1205.171753 
	C1149.163452,1206.263672 1148.001587,1207.304443 1146.687500,1208.621704 
z"/>
<path fill="#FBBC28" opacity="1.000000" stroke="none" 
	d="
M342.260010,835.975830 
	C337.796570,839.816772 333.150879,843.193237 328.617615,846.714478 
	C263.913086,896.974792 199.222626,947.253174 134.535080,997.535339 
	C132.227295,999.329163 129.984741,1001.206970 127.394379,1003.205322 
	C125.351585,1001.709534 122.986656,1000.367859 121.996849,998.351257 
	C107.294991,968.397705 94.120438,937.779480 85.058182,905.618530 
	C78.506599,882.367615 72.589607,858.916504 67.177071,835.373657 
	C63.742073,820.432556 61.478424,805.200134 59.218349,790.019531 
	C57.938538,781.423218 57.373238,772.678894 57.100693,763.981934 
	C56.259438,737.137695 55.322403,710.285583 55.228317,683.433716 
	C55.185345,671.169312 56.898315,658.885803 58.055927,646.633789 
	C59.242561,634.074524 60.325439,621.483398 62.194141,609.017212 
	C63.876873,597.791687 66.673416,586.737366 68.783737,575.570679 
	C74.106964,547.403076 82.555382,520.129883 91.960854,493.108551 
	C101.130936,466.763519 111.928741,441.136536 125.110626,416.113922 
	C136.067108,423.985046 146.986435,432.144928 157.765366,440.486237 
	C195.915115,470.008514 234.008957,499.602997 272.139740,529.149780 
	C295.803833,547.486633 319.496368,565.786682 343.496613,584.242188 
	C340.823273,595.652161 337.448242,606.838928 334.933502,618.215942 
	C331.880737,632.027161 329.326172,645.960266 326.963348,659.909607 
	C322.823212,684.351990 323.299622,709.071472 324.196564,733.669312 
	C324.730011,748.297424 327.014526,762.982117 329.859528,777.374939 
	C333.379333,795.181702 338.339142,812.702148 342.537506,830.379395 
	C342.919891,831.989441 342.289917,833.839844 342.260010,835.975830 
z"/>
<path fill="#C66B5E" opacity="1.000000" stroke="none" 
	d="
M687.833496,314.917725 
	C689.522156,314.577942 691.644775,314.032349 693.763428,314.047455 
	C708.541992,314.152649 723.319824,314.373993 738.464355,314.695435 
	C721.975830,314.878937 705.120667,314.925140 687.833496,314.917725 
z"/>
<path fill="#629E74" opacity="1.000000" stroke="none" 
	d="
M670.954224,1103.687256 
	C660.967957,1102.576416 650.724304,1101.116821 640.208252,1099.405151 
	C647.604492,1100.258301 655.270264,1101.383301 662.943298,1102.457397 
	C665.518433,1102.817871 668.111694,1103.048584 670.954224,1103.687256 
z"/>
<path fill="#629E74" opacity="1.000000" stroke="none" 
	d="
M639.005737,1098.718628 
	C636.357422,1098.589478 633.464233,1098.128540 630.304321,1097.413818 
	C632.945435,1097.568848 635.853149,1097.977905 639.005737,1098.718628 
z"/>
<path fill="#629E74" opacity="1.000000" stroke="none" 
	d="
M672.888184,1104.614502 
	C672.773071,1104.654297 672.594849,1104.514648 672.275208,1104.279297 
	C672.435120,1104.082886 672.665527,1104.166626 672.888184,1104.614502 
z"/>
</svg>