<svg version="1.1" id="Layer_1" xmlns="http://www.w3.org/2000/svg" xmlns:xlink="http://www.w3.org/1999/xlink" x="0px" y="0px"
	 width="100%" viewBox="0 0 1024 1024" enable-background="new 0 0 1024 1024" xml:space="preserve">
<path fill="#000000" opacity="1.000000" stroke="none" 
	d="
M678.000000,1025.000000 
	C452.000000,1025.000000 226.500000,1025.000000 1.000000,1025.000000 
	C1.000000,683.666687 1.000000,342.333344 1.000000,1.000000 
	C342.333344,1.000000 683.666687,1.000000 1025.000000,1.000000 
	C1025.000000,342.333344 1025.000000,683.666687 1025.000000,1025.000000 
	C909.500000,1025.000000 794.000000,1025.000000 678.000000,1025.000000 
M207.765106,522.901367 
	C207.601089,538.879395 207.309601,554.857422 207.315521,570.835388 
	C207.319839,582.481750 207.705780,594.128235 207.940445,605.774292 
	C208.277954,622.524780 208.228241,639.296143 209.105881,656.018616 
	C209.828918,669.794983 219.042572,679.754883 232.750427,680.807190 
	C247.480255,681.937866 262.332336,681.537659 277.132294,681.660400 
	C282.453491,681.704590 287.778717,681.155884 293.101166,681.173096 
	C311.387634,681.232117 329.673859,681.556824 347.959839,681.530151 
	C374.946564,681.490784 401.932831,681.172058 428.919586,681.104248 
	C440.706848,681.074585 449.872772,686.051819 457.080994,695.538086 
	C470.761414,713.542175 487.088776,726.586060 511.601227,726.481628 
	C523.915344,726.429138 535.001526,723.905029 545.403320,717.933899 
	C556.162537,711.757751 563.515442,701.921509 571.382385,692.654602 
	C576.127197,687.065552 581.963135,682.639465 589.526367,682.197632 
	C601.809875,681.479919 614.130371,681.049194 626.433411,681.087830 
	C648.904724,681.158386 671.374084,681.842102 693.845459,681.918213 
	C708.493652,681.967896 723.143494,681.183594 737.793335,681.158386 
	C754.732361,681.129211 771.671997,681.537659 788.611694,681.728455 
	C800.675659,681.864258 813.181213,673.407715 815.666138,662.607666 
	C817.176575,656.042847 817.971802,649.168396 817.994751,642.429260 
	C818.180115,587.938599 818.108765,533.447144 818.110413,478.955872 
	C818.111694,436.462708 818.126099,393.969513 818.086243,351.476410 
	C818.077637,342.256042 813.584290,335.021606 804.688232,332.721497 
	C798.073730,331.011292 790.907471,331.265045 783.973389,331.005005 
	C775.704712,330.694916 774.102356,328.937042 775.375793,320.582672 
	C776.444885,313.569519 773.226318,306.075775 767.462891,304.323212 
	C753.158447,299.973419 738.894104,295.097809 724.253784,292.353210 
	C708.455261,289.391418 692.251587,288.574493 676.217590,286.889496 
	C659.211365,285.102386 642.411438,286.419464 625.573669,289.395813 
	C596.788025,294.484070 570.009644,304.413116 546.114380,321.313995 
	C536.777039,327.918213 528.037048,335.440277 519.488281,343.063904 
	C512.141724,349.615509 512.435852,349.940063 505.313660,342.791016 
	C503.079620,340.548584 500.964661,338.163544 498.564087,336.114594 
	C472.371094,313.758545 442.490936,298.873077 408.704376,291.946594 
	C390.239319,288.161163 371.638702,285.107117 352.743317,286.113556 
	C338.320618,286.881805 323.829559,287.980438 309.601715,290.337219 
	C295.533569,292.667572 281.220947,295.359406 267.985840,300.426849 
	C250.528503,307.110901 250.789139,307.069946 250.970627,322.961609 
	C251.050522,329.959595 249.952850,330.868927 242.719711,330.946472 
	C237.554474,331.001831 232.339233,330.551270 227.233749,331.116425 
	C217.991394,332.139435 210.116043,337.057831 209.573486,345.120422 
	C208.804962,356.541229 207.903656,367.968964 207.673584,379.406128 
	C207.392624,393.373535 207.848206,407.354126 207.798935,421.328339 
	C207.753265,434.280365 207.344971,447.231323 207.319260,460.183228 
	C207.301422,469.168549 207.777451,478.154053 207.823837,487.140564 
	C207.883865,498.774353 207.735886,510.409241 207.765106,522.901367 
z"/>
<path fill="#070707" opacity="1.000000" stroke="none" 
	d="
M207.721283,522.472534 
	C207.735886,510.409241 207.883865,498.774353 207.823837,487.140564 
	C207.777451,478.154053 207.301422,469.168549 207.319260,460.183228 
	C207.344971,447.231323 207.753265,434.280365 207.798935,421.328339 
	C207.848206,407.354126 207.392624,393.373535 207.673584,379.406128 
	C207.903656,367.968964 208.804962,356.541229 209.573486,345.120422 
	C210.116043,337.057831 217.991394,332.139435 227.233749,331.116425 
	C232.339233,330.551270 237.554474,331.001831 242.719711,330.946472 
	C249.952850,330.868927 251.050522,329.959595 250.970627,322.961609 
	C250.789139,307.069946 250.528503,307.110901 267.985840,300.426849 
	C281.220947,295.359406 295.533569,292.667572 309.601715,290.337219 
	C323.829559,287.980438 338.320618,286.881805 352.743317,286.113556 
	C371.638702,285.107117 390.239319,288.161163 408.704376,291.946594 
	C442.490936,298.873077 472.371094,313.758545 498.564087,336.114594 
	C500.964661,338.163544 503.079620,340.548584 505.313660,342.791016 
	C512.435852,349.940063 512.141724,349.615509 519.488281,343.063904 
	C528.037048,335.440277 536.777039,327.918213 546.114380,321.313995 
	C570.009644,304.413116 596.788025,294.484070 625.573669,289.395813 
	C642.411438,286.419464 659.211365,285.102386 676.217590,286.889496 
	C692.251587,288.574493 708.455261,289.391418 724.253784,292.353210 
	C738.894104,295.097809 753.158447,299.973419 767.462891,304.323212 
	C773.226318,306.075775 776.444885,313.569519 775.375793,320.582672 
	C774.102356,328.937042 775.704712,330.694916 783.973389,331.005005 
	C790.907471,331.265045 798.073730,331.011292 804.688232,332.721497 
	C813.584290,335.021606 818.077637,342.256042 818.086243,351.476410 
	C818.126099,393.969513 818.111694,436.462708 818.110413,478.955872 
	C818.108765,533.447144 818.180115,587.938599 817.994751,642.429260 
	C817.971802,649.168396 817.176575,656.042847 815.666138,662.607666 
	C813.181213,673.407715 800.675659,681.864258 788.611694,681.728455 
	C771.671997,681.537659 754.732361,681.129211 737.793335,681.158386 
	C723.143494,681.183594 708.493652,681.967896 693.845459,681.918213 
	C671.374084,681.842102 648.904724,681.158386 626.433411,681.087830 
	C614.130371,681.049194 601.809875,681.479919 589.526367,682.197632 
	C581.963135,682.639465 576.127197,687.065552 571.382385,692.654602 
	C563.515442,701.921509 556.162537,711.757751 545.403320,717.933899 
	C535.001526,723.905029 523.915344,726.429138 511.601227,726.481628 
	C487.088776,726.586060 470.761414,713.542175 457.080994,695.538086 
	C449.872772,686.051819 440.706848,681.074585 428.919586,681.104248 
	C401.932831,681.172058 374.946564,681.490784 347.959839,681.530151 
	C329.673859,681.556824 311.387634,681.232117 293.101166,681.173096 
	C287.778717,681.155884 282.453491,681.704590 277.132294,681.660400 
	C262.332336,681.537659 247.480255,681.937866 232.750427,680.807190 
	C219.042572,679.754883 209.828918,669.794983 209.105881,656.018616 
	C208.228241,639.296143 208.277954,622.524780 207.940445,605.774292 
	C207.705780,594.128235 207.319839,582.481750 207.315521,570.835388 
	C207.309601,554.857422 207.601089,538.879395 207.721283,522.472534 
M351.845337,598.080139 
	C358.458496,597.973633 365.071808,597.876953 371.684570,597.750000 
	C372.675598,597.731018 373.685669,597.388245 374.650055,597.503601 
	C384.077209,598.630798 393.510773,599.721069 402.914062,601.026611 
	C412.346680,602.336365 421.903015,603.230347 431.130432,605.448975 
	C453.651520,610.863770 474.655090,620.009888 493.912750,633.009460 
	C495.362823,633.988281 497.011841,634.672424 499.374390,635.918701 
	C499.581787,632.973999 499.853271,630.900574 499.855011,628.826904 
	C499.880890,598.178040 499.870758,567.529114 499.869507,536.880249 
	C499.867401,484.743866 499.930969,432.607239 499.725281,380.471649 
	C499.710602,376.751465 498.879211,371.787445 496.449585,369.541992 
	C486.467041,360.316223 475.995697,351.553833 465.160522,343.337982 
	C457.262909,337.349548 448.665466,332.223175 440.077087,327.233917 
	C436.141785,324.947693 431.528564,323.755524 427.128296,322.366608 
	C423.852386,321.332581 420.424530,320.779816 417.239929,319.874298 
	C417.159637,319.900360 417.079376,319.926422 416.314850,319.892212 
	C415.025787,319.581390 413.292053,319.695984 412.520752,318.889832 
	C407.955078,314.117676 402.263367,314.636780 396.389526,314.441132 
	C391.161713,314.267029 385.995880,312.528748 380.777466,311.626556 
	C378.734894,311.273376 376.621857,311.177612 374.543884,311.203552 
	C362.753937,311.350616 350.888458,312.455902 339.202911,311.447601 
	C331.643921,310.795319 324.810852,310.704468 317.975708,314.106995 
	C315.967712,315.106598 313.426208,315.787048 311.243347,315.552307 
	C301.775635,314.534210 293.123810,317.573700 284.445465,320.460693 
	C276.219757,323.197083 276.188477,323.320160 276.186462,331.867737 
	C276.165497,421.330322 276.165863,510.792908 276.174011,600.255493 
	C276.174622,606.703003 282.735779,610.681702 288.215607,607.087097 
	C292.935577,603.991028 298.192871,604.767273 303.145416,603.564880 
	C306.969116,602.636597 310.851196,601.881470 314.747192,601.332458 
	C322.241943,600.276245 329.751007,599.278809 337.281616,598.535217 
	C341.828094,598.086182 346.426270,598.160706 351.000000,598.000000 
	C351.000000,598.000000 350.999908,598.000000 351.845337,598.080139 
M646.363831,310.106384 
	C642.948547,310.741455 639.468933,311.143219 636.132263,312.063477 
	C630.389343,313.647369 624.750732,315.605560 619.039917,317.311340 
	C613.104614,319.084137 607.035278,320.457520 601.198425,322.501923 
	C573.493225,332.205536 549.897339,348.271698 529.410767,369.149628 
	C526.536316,372.078979 525.038879,375.140869 525.041687,379.288849 
	C525.098450,462.914612 525.074341,546.540405 525.114685,630.166199 
	C525.115540,631.975891 525.682556,633.785339 525.817017,634.588806 
	C536.473877,629.775085 546.431030,624.556030 556.894653,620.717834 
	C573.103821,614.772156 589.497192,609.186829 606.124451,604.572876 
	C617.006775,601.553040 627.905945,598.495178 639.823120,599.533569 
	C652.844971,600.668152 666.085449,599.312256 679.229980,599.011597 
	C684.014099,598.902161 688.871887,598.096741 693.563049,598.679260 
	C702.504028,599.789429 711.344055,601.700623 720.236267,603.218689 
	C726.745422,604.329956 733.336182,605.049438 739.773438,606.473267 
	C748.769714,608.463013 749.836548,607.859924 749.837219,598.931458 
	C749.843750,510.641235 749.847839,422.351013 749.834961,334.060791 
	C749.834229,329.037354 750.956665,324.038788 743.120789,322.714874 
	C735.241394,321.383575 727.763184,317.815247 719.998596,315.617767 
	C715.103699,314.232422 710.038269,313.330048 704.991150,312.630981 
	C697.927368,311.652557 690.580505,309.582550 683.764465,310.634460 
	C671.412964,312.540588 659.377441,313.019226 646.363831,310.106384 
M537.341309,692.859802 
	C541.173828,688.703125 545.490845,684.892639 548.752563,680.328125 
	C560.968567,663.232910 578.438965,656.184265 598.333130,656.018555 
	C659.821533,655.506348 721.317078,655.840027 782.809814,655.829712 
	C792.306335,655.828125 793.842834,654.243652 794.021973,644.858459 
	C794.164490,637.385620 794.391968,629.914062 794.636414,622.443665 
	C794.932129,613.405579 795.568726,604.367737 795.520935,595.332703 
	C795.485168,588.558655 793.795288,581.734253 794.251404,575.028198 
	C795.437195,557.592346 794.057983,540.213989 794.064941,522.812683 
	C794.070251,509.503326 794.685303,496.194519 794.715027,482.884766 
	C794.741272,471.144287 794.123047,459.402008 794.171265,447.662048 
	C794.227173,434.038452 794.951111,420.416016 794.922791,406.794037 
	C794.892273,392.142456 794.332031,377.491882 793.990051,362.841156 
	C793.832886,356.109558 793.685852,355.997650 787.025696,355.400909 
	C785.880127,355.298309 784.774597,354.809509 783.633728,354.584778 
	C777.264404,353.330048 772.899536,357.305969 773.303711,363.757324 
	C773.646912,369.236298 773.940308,374.732758 773.900330,380.218903 
	C773.726013,404.127319 773.411255,428.034729 773.193970,451.942932 
	C773.182068,453.252289 773.735352,454.561401 773.771851,455.877655 
	C773.862061,459.134399 773.895203,462.398499 773.778381,465.653442 
	C773.683411,468.301392 773.116150,470.942291 773.138916,473.583008 
	C773.293030,491.393005 773.750793,509.202484 773.718994,527.011414 
	C773.680664,548.472534 773.150330,569.932617 773.074219,591.393982 
	C773.056641,596.336060 774.501404,601.289307 774.421814,606.223755 
	C774.298523,613.869690 773.787292,621.553223 772.702148,629.114868 
	C772.348267,631.580994 770.143738,634.368958 767.990601,635.867188 
	C763.511292,638.984314 758.783020,636.485596 754.071960,635.457520 
	C734.741821,631.239502 715.515991,625.817383 695.940857,623.660706 
	C677.802612,621.662292 659.386047,620.922546 640.885010,622.784607 
	C612.498901,625.641724 585.450317,632.586914 560.033020,645.352356 
	C546.436279,652.181091 534.323975,661.226379 524.208679,672.895142 
	C517.195068,680.985901 509.717773,680.934143 502.176483,673.716797 
	C498.445221,670.145813 495.001617,666.220947 490.985443,663.009399 
	C458.723297,637.211304 421.315887,625.338013 380.571320,623.074402 
	C368.826385,622.421814 356.950165,623.679077 345.261322,622.635742 
	C337.911316,621.979614 331.038116,623.128784 324.171021,624.547485 
	C305.593475,628.385254 287.124451,632.752075 268.629425,636.983643 
	C260.888916,638.754639 254.394943,635.620605 252.062622,628.038086 
	C250.716278,623.661011 249.918259,618.928162 249.911346,614.353943 
	C249.786331,531.697205 249.820419,449.040222 249.814560,366.383301 
	C249.814423,364.384491 250.046844,362.316986 249.611191,360.409271 
	C249.279984,358.958862 248.380814,357.153015 247.182724,356.462769 
	C237.938095,351.136841 233.210373,353.904572 233.173004,364.461761 
	C233.171829,364.795044 233.171646,365.128357 233.171646,365.461639 
	C233.170746,458.117401 233.167725,550.773193 233.171860,643.428955 
	C233.172348,654.430969 234.603729,655.853821 245.551590,655.852966 
	C307.544281,655.848083 369.537109,655.777222 431.529572,655.901733 
	C440.949036,655.920654 449.819794,658.622986 458.154816,663.223389 
	C467.808289,668.551453 474.207367,677.009766 480.817047,685.408691 
	C495.626068,704.226440 519.123230,707.552246 537.341309,692.859802 
M362.251343,309.068817 
	C360.938416,309.220184 359.625458,309.371552 358.312531,309.522888 
	C358.342682,309.776825 358.372803,310.030731 358.402954,310.284637 
	C361.191711,310.284637 363.980499,310.284637 366.769257,310.284637 
	C366.777130,310.040680 366.785034,309.796722 366.792908,309.552765 
	C365.509247,309.399414 364.225586,309.246063 362.251343,309.068817 
M697.166504,658.908386 
	C698.320923,658.754944 699.475342,658.601501 700.629761,658.447998 
	C700.579651,658.059204 700.529541,657.670349 700.479431,657.281494 
	C698.920288,657.350464 697.361206,657.419434 695.802063,657.488464 
	C696.072876,657.941956 696.343689,658.395447 697.166504,658.908386 
M348.247955,310.720337 
	C348.786530,310.560791 349.325104,310.401276 349.863647,310.241730 
	C349.834198,310.013885 349.804749,309.786041 349.775269,309.558197 
	C348.592926,309.558197 347.410583,309.558197 346.228241,309.558197 
	C346.200378,309.787659 346.172546,310.017090 346.144684,310.246552 
	C346.687592,310.403992 347.230499,310.561401 348.247955,310.720337 
M709.482422,657.471497 
	C709.020508,657.557800 708.558655,657.644104 708.096741,657.730347 
	C708.331055,658.045898 708.565369,658.361450 708.799622,658.677063 
	C709.125916,658.325928 709.452209,657.974854 709.482422,657.471497 
M719.187683,658.438538 
	C719.784973,658.370667 720.382263,658.302795 720.979553,658.234924 
	C720.832275,657.983521 720.609253,657.498047 720.549622,657.517395 
	C720.021057,657.688477 719.521423,657.948975 719.187683,658.438538 
M660.249146,310.448853 
	C660.561646,310.257629 660.874207,310.066376 661.186768,309.875153 
	C660.955627,309.734314 660.724548,309.593475 660.493408,309.452637 
	C660.332520,309.741943 660.171692,310.031250 660.249146,310.448853 
M604.861572,657.887878 
	C605.156860,658.100464 605.452148,658.313049 605.747437,658.525635 
	C605.895325,658.312561 606.043213,658.099487 606.191040,657.886414 
	C605.804321,657.816772 605.417664,657.747131 604.861572,657.887878 
M684.622131,658.103455 
	C684.859863,658.145081 685.097534,658.186707 685.335266,658.228333 
	C685.343506,658.096375 685.351685,657.964478 685.359863,657.832458 
	C685.118896,657.856628 684.877930,657.880737 684.622131,658.103455 
M750.978516,658.038879 
	C750.978516,658.038879 750.952209,658.004517 750.978516,658.038879 
z"/>
<path fill="#010101" opacity="1.000000" stroke="none" 
	d="
M646.794739,310.135895 
	C659.377441,313.019226 671.412964,312.540588 683.764465,310.634460 
	C690.580505,309.582550 697.927368,311.652557 704.991150,312.630981 
	C710.038269,313.330048 715.103699,314.232422 719.998596,315.617767 
	C727.763184,317.815247 735.241394,321.383575 743.120789,322.714874 
	C750.956665,324.038788 749.834229,329.037354 749.834961,334.060791 
	C749.847839,422.351013 749.843750,510.641235 749.837219,598.931458 
	C749.836548,607.859924 748.769714,608.463013 739.773438,606.473267 
	C733.336182,605.049438 726.745422,604.329956 720.236267,603.218689 
	C711.344055,601.700623 702.504028,599.789429 693.563049,598.679260 
	C688.871887,598.096741 684.014099,598.902161 679.229980,599.011597 
	C666.085449,599.312256 652.844971,600.668152 639.823120,599.533569 
	C627.905945,598.495178 617.006775,601.553040 606.124451,604.572876 
	C589.497192,609.186829 573.103821,614.772156 556.894653,620.717834 
	C546.431030,624.556030 536.473877,629.775085 525.817017,634.588806 
	C525.682556,633.785339 525.115540,631.975891 525.114685,630.166199 
	C525.074341,546.540405 525.098450,462.914612 525.041687,379.288849 
	C525.038879,375.140869 526.536316,372.078979 529.410767,369.149628 
	C549.897339,348.271698 573.493225,332.205536 601.198425,322.501923 
	C607.035278,320.457520 613.104614,319.084137 619.039917,317.311340 
	C624.750732,315.605560 630.389343,313.647369 636.132263,312.063477 
	C639.468933,311.143219 642.948547,310.741455 646.794739,310.135895 
M556.965088,384.058441 
	C556.173218,385.522644 555.348694,386.970306 554.595276,388.454041 
	C551.938110,393.687042 555.263977,400.536163 560.594666,402.727753 
	C565.651489,404.806641 569.442200,403.034027 573.734436,400.864899 
	C587.670410,393.822083 601.343384,386.145203 617.208923,383.835449 
	C624.612427,382.757660 631.273315,378.261963 639.259155,379.197937 
	C643.788574,379.728790 648.446716,379.052429 653.041077,379.162079 
	C662.995361,379.399506 672.944702,378.608765 682.912170,380.399292 
	C687.225952,381.174194 691.466125,381.128937 695.708069,383.112152 
	C700.436340,385.322723 705.746521,386.546875 710.934082,387.448364 
	C716.745056,388.458130 722.099609,384.599091 723.556335,379.213531 
	C725.291199,372.799591 723.111084,366.770111 717.085571,364.884979 
	C708.959412,362.342621 700.548889,360.506195 692.134216,359.149536 
	C684.631348,357.939880 676.965698,357.458130 669.356201,357.261719 
	C659.174683,356.998962 648.974670,354.377075 638.763428,357.427917 
	C636.787415,358.018311 634.474243,357.537781 632.319702,357.462433 
	C624.727478,357.196930 617.255066,357.364075 610.325928,361.234283 
	C608.818237,362.076385 606.772095,362.312408 604.994141,362.250183 
	C597.530090,361.988983 591.124695,364.869965 584.685242,368.196136 
	C579.785278,370.727081 574.243408,372.039276 569.414490,374.676270 
	C565.055542,377.056549 561.276489,380.498627 556.965088,384.058441 
M688.928711,559.069336 
	C695.871582,560.255249 702.788330,561.636536 709.765198,562.567810 
	C715.806641,563.374207 721.903687,560.357178 722.337646,556.087158 
	C723.170532,547.892456 724.221069,544.549072 715.130493,540.958557 
	C713.275391,540.225830 711.405518,539.312744 709.465393,539.048340 
	C695.848511,537.192322 682.215149,535.455200 668.578430,533.748962 
	C664.956848,533.295837 661.282471,532.649658 657.671509,532.838745 
	C645.304565,533.486267 632.865662,533.821106 620.626953,535.520142 
	C610.625977,536.908569 600.866699,540.054749 591.017151,542.489990 
	C590.086426,542.720032 589.312805,543.522400 588.404785,543.917969 
	C582.424988,546.522949 576.535400,549.386658 570.409790,551.592224 
	C562.879028,554.303955 556.731628,558.162659 554.482788,566.407349 
	C552.927490,572.109192 555.253113,577.867249 560.225708,578.331177 
	C565.049133,578.781250 570.446106,578.738525 574.846924,577.013428 
	C588.561890,571.637573 601.875854,565.247314 615.461060,559.525146 
	C618.441650,558.269775 621.875305,557.929871 625.144653,557.552307 
	C632.871277,556.659912 640.615601,555.879578 648.370605,555.287720 
	C653.084961,554.927917 657.851868,554.685120 662.559509,554.973022 
	C667.251709,555.260071 672.021301,557.256409 676.532104,556.695374 
	C681.037903,556.134888 684.667480,556.826782 688.928711,559.069336 
M653.564941,436.004059 
	C661.454773,436.388672 669.612366,434.596283 677.001465,439.135437 
	C677.946899,439.716217 679.595947,439.024323 680.877075,439.210571 
	C684.344238,439.714478 687.890259,440.036591 691.221802,441.039490 
	C698.912781,443.354797 706.056946,447.748322 714.720093,445.715424 
	C721.056519,444.228516 724.463074,440.698822 724.296509,434.614319 
	C724.130432,428.544861 719.409241,423.363831 713.630615,422.593903 
	C706.569214,421.653046 699.517151,420.613037 692.494080,419.421417 
	C682.883484,417.790833 673.729370,413.749481 663.539185,415.156769 
	C657.675903,415.966522 651.611145,415.284729 645.637573,415.337738 
	C639.664795,415.390778 633.417725,414.422485 627.773315,415.832581 
	C612.637573,419.613831 597.884644,424.940430 582.730408,428.629303 
	C574.390686,430.659363 567.160339,434.392120 560.170044,438.854858 
	C553.119995,443.355682 551.867249,448.051422 554.778931,455.949066 
	C556.465210,460.523193 560.362976,462.686981 565.119812,461.449493 
	C569.267944,460.370422 573.492615,459.388275 577.439636,457.769012 
	C591.561462,451.975494 605.536377,445.822784 619.675842,440.074005 
	C622.312988,439.001801 625.446289,439.100220 628.364746,438.792267 
	C629.654358,438.656219 631.003784,439.039246 632.283997,438.869385 
	C639.062195,437.970184 645.826965,436.970093 653.564941,436.004059 
z"/>
<path fill="#010101" opacity="1.000000" stroke="none" 
	d="
M351.001221,598.000000 
	C346.426270,598.160706 341.828094,598.086182 337.281616,598.535217 
	C329.751007,599.278809 322.241943,600.276245 314.747192,601.332458 
	C310.851196,601.881470 306.969116,602.636597 303.145416,603.564880 
	C298.192871,604.767273 292.935577,603.991028 288.215607,607.087097 
	C282.735779,610.681702 276.174622,606.703003 276.174011,600.255493 
	C276.165863,510.792908 276.165497,421.330322 276.186462,331.867737 
	C276.188477,323.320160 276.219757,323.197083 284.445465,320.460693 
	C293.123810,317.573700 301.775635,314.534210 311.243347,315.552307 
	C313.426208,315.787048 315.967712,315.106598 317.975708,314.106995 
	C324.810852,310.704468 331.643921,310.795319 339.202911,311.447601 
	C350.888458,312.455902 362.753937,311.350616 374.543884,311.203552 
	C376.621857,311.177612 378.734894,311.273376 380.777466,311.626556 
	C385.995880,312.528748 391.161713,314.267029 396.389526,314.441132 
	C402.263367,314.636780 407.955078,314.117676 412.520752,318.889832 
	C413.292053,319.695984 415.025787,319.581390 416.671875,319.938965 
	C417.028870,319.985748 417.064362,320.012726 417.064362,320.012726 
	C420.424530,320.779816 423.852386,321.332581 427.128296,322.366608 
	C431.528564,323.755524 436.141785,324.947693 440.077087,327.233917 
	C448.665466,332.223175 457.262909,337.349548 465.160522,343.337982 
	C475.995697,351.553833 486.467041,360.316223 496.449585,369.541992 
	C498.879211,371.787445 499.710602,376.751465 499.725281,380.471649 
	C499.930969,432.607239 499.867401,484.743866 499.869507,536.880249 
	C499.870758,567.529114 499.880890,598.178040 499.855011,628.826904 
	C499.853271,630.900574 499.581787,632.973999 499.374390,635.918701 
	C497.011841,634.672424 495.362823,633.988281 493.912750,633.009460 
	C474.655090,620.009888 453.651520,610.863770 431.130432,605.448975 
	C421.903015,603.230347 412.346680,602.336365 402.914062,601.026611 
	C393.510773,599.721069 384.077209,598.630798 374.650055,597.503601 
	C373.685669,597.388245 372.675598,597.731018 371.684570,597.750000 
	C365.071808,597.876953 358.458496,597.973633 351.130188,597.921021 
	C349.250702,597.554321 348.086365,597.346741 346.922028,597.139160 
	C346.895630,597.364136 346.869263,597.589172 346.842865,597.814148 
	C348.228973,597.876099 349.615112,597.938049 351.001221,598.000000 
M378.700500,436.849609 
	C380.166626,436.926208 381.686218,436.781769 383.088684,437.121307 
	C387.089172,438.089783 390.982819,439.636230 395.025818,440.263794 
	C403.421631,441.566956 411.596802,443.030975 419.835388,445.709503 
	C430.234741,449.090485 439.379730,454.709259 449.349548,458.667999 
	C453.445374,460.294312 457.956909,461.374176 462.344421,461.643768 
	C468.366119,462.013733 473.213684,456.632538 471.545929,450.802032 
	C470.262146,446.313873 467.658630,441.061279 463.995026,438.606842 
	C452.319977,430.785065 439.098053,425.826447 425.405182,422.791779 
	C411.033997,419.606812 396.530945,416.516968 381.918793,415.076782 
	C370.135986,413.915375 358.081055,414.891571 346.192566,415.642731 
	C338.170135,416.149658 330.156769,417.578766 322.273254,419.233368 
	C316.958649,420.348846 311.654144,422.107422 306.754761,424.439087 
	C301.870422,426.763672 299.655121,431.891083 301.442047,437.149506 
	C302.440460,440.087402 305.443604,444.231476 307.841827,444.442657 
	C314.320526,445.013123 321.312195,444.907654 327.459595,443.002716 
	C339.673065,439.218018 351.677094,436.103760 364.646729,437.849487 
	C368.978241,438.432434 373.535492,437.337738 377.998718,437.001251 
	C377.998718,437.001251 378.001617,436.994995 378.700500,436.849609 
M464.791504,521.321655 
	C467.052490,520.229431 469.947174,519.686096 471.456787,517.943115 
	C476.170837,512.500427 475.060089,504.064819 468.229279,500.324249 
	C456.623840,493.969025 444.758148,487.714813 432.319611,483.372192 
	C422.155670,479.823761 411.008606,479.056671 400.274109,477.190613 
	C394.272278,476.147217 388.197540,474.482788 382.199860,474.653290 
	C364.930664,475.144257 347.690826,476.585510 330.425629,477.334045 
	C320.826599,477.750183 312.722473,481.629089 305.559906,487.450134 
	C299.616028,492.280701 300.668304,498.745697 307.694000,501.996094 
	C309.949554,503.039612 312.818726,503.086639 315.394562,503.028687 
	C319.034180,502.946777 322.709747,502.592682 326.284088,501.907135 
	C332.044708,500.802216 337.675781,498.878510 343.468872,498.118805 
	C352.921051,496.879303 362.466675,495.576721 371.959412,495.670288 
	C379.417542,495.743744 386.859467,497.860291 394.301117,499.113647 
	C404.534027,500.837128 414.644409,502.883209 424.359589,506.818146 
	C437.398926,512.099365 449.943115,518.818481 464.791504,521.321655 
M329.257263,537.874207 
	C322.915314,539.036682 316.553680,540.102966 310.237946,541.393860 
	C305.679352,542.325623 302.170837,544.847351 301.175537,549.603577 
	C300.305939,553.759277 299.897827,559.048767 304.003357,560.913330 
	C309.009888,563.187134 315.266876,566.403015 320.553497,562.937439 
	C329.685455,556.951050 340.349762,557.914062 350.116394,555.763611 
	C367.095459,552.025085 384.655579,552.942627 401.446228,559.127319 
	C402.797699,559.625122 404.403687,559.391541 405.872528,559.619507 
	C408.821320,560.077148 411.964935,560.111084 414.661652,561.215088 
	C425.372620,565.600281 435.772034,570.797180 446.627960,574.758545 
	C453.193359,577.154236 460.363007,577.965149 467.319092,579.147339 
	C468.443359,579.338379 470.967163,577.760254 470.975586,576.979736 
	C471.022858,572.600708 471.251648,567.986328 470.004852,563.881653 
	C467.665649,556.180481 460.545654,552.810547 453.738678,551.284912 
	C446.206451,549.596619 440.149384,545.266785 433.329285,542.807068 
	C421.976044,538.712463 409.867615,535.994751 397.857758,534.634644 
	C385.209167,533.202209 372.294800,534.276672 359.512512,533.814209 
	C349.417328,533.448914 339.461121,533.299072 329.257263,537.874207 
M318.968536,445.435486 
	C318.968536,445.435486 319.043610,445.440063 318.968536,445.435486 
z"/>
<path fill="#000000" opacity="1.000000" stroke="none" 
	d="
M537.078857,693.099854 
	C519.123230,707.552246 495.626068,704.226440 480.817047,685.408691 
	C474.207367,677.009766 467.808289,668.551453 458.154816,663.223389 
	C449.819794,658.622986 440.949036,655.920654 431.529572,655.901733 
	C369.537109,655.777222 307.544281,655.848083 245.551590,655.852966 
	C234.603729,655.853821 233.172348,654.430969 233.171860,643.428955 
	C233.167725,550.773193 233.170746,458.117401 233.171646,365.461639 
	C233.171646,365.128357 233.171829,364.795044 233.173004,364.461761 
	C233.210373,353.904572 237.938095,351.136841 247.182724,356.462769 
	C248.380814,357.153015 249.279984,358.958862 249.611191,360.409271 
	C250.046844,362.316986 249.814423,364.384491 249.814560,366.383301 
	C249.820419,449.040222 249.786331,531.697205 249.911346,614.353943 
	C249.918259,618.928162 250.716278,623.661011 252.062622,628.038086 
	C254.394943,635.620605 260.888916,638.754639 268.629425,636.983643 
	C287.124451,632.752075 305.593475,628.385254 324.171021,624.547485 
	C331.038116,623.128784 337.911316,621.979614 345.261322,622.635742 
	C356.950165,623.679077 368.826385,622.421814 380.571320,623.074402 
	C421.315887,625.338013 458.723297,637.211304 490.985443,663.009399 
	C495.001617,666.220947 498.445221,670.145813 502.176483,673.716797 
	C509.717773,680.934143 517.195068,680.985901 524.208679,672.895142 
	C534.323975,661.226379 546.436279,652.181091 560.033020,645.352356 
	C585.450317,632.586914 612.498901,625.641724 640.885010,622.784607 
	C659.386047,620.922546 677.802612,621.662292 695.940857,623.660706 
	C715.515991,625.817383 734.741821,631.239502 754.071960,635.457520 
	C758.783020,636.485596 763.511292,638.984314 767.990601,635.867188 
	C770.143738,634.368958 772.348267,631.580994 772.702148,629.114868 
	C773.787292,621.553223 774.298523,613.869690 774.421814,606.223755 
	C774.501404,601.289307 773.056641,596.336060 773.074219,591.393982 
	C773.150330,569.932617 773.680664,548.472534 773.718994,527.011414 
	C773.750793,509.202484 773.293030,491.393005 773.138916,473.583008 
	C773.116150,470.942291 773.683411,468.301392 773.778381,465.653442 
	C773.895203,462.398499 773.862061,459.134399 773.771851,455.877655 
	C773.735352,454.561401 773.182068,453.252289 773.193970,451.942932 
	C773.411255,428.034729 773.726013,404.127319 773.900330,380.218903 
	C773.940308,374.732758 773.646912,369.236298 773.303711,363.757324 
	C772.899536,357.305969 777.264404,353.330048 783.633728,354.584778 
	C784.774597,354.809509 785.880127,355.298309 787.025696,355.400909 
	C793.685852,355.997650 793.832886,356.109558 793.990051,362.841156 
	C794.332031,377.491882 794.892273,392.142456 794.922791,406.794037 
	C794.951111,420.416016 794.227173,434.038452 794.171265,447.662048 
	C794.123047,459.402008 794.741272,471.144287 794.715027,482.884766 
	C794.685303,496.194519 794.070251,509.503326 794.064941,522.812683 
	C794.057983,540.213989 795.437195,557.592346 794.251404,575.028198 
	C793.795288,581.734253 795.485168,588.558655 795.520935,595.332703 
	C795.568726,604.367737 794.932129,613.405579 794.636414,622.443665 
	C794.391968,629.914062 794.164490,637.385620 794.021973,644.858459 
	C793.842834,654.243652 792.306335,655.828125 782.809814,655.829712 
	C721.317078,655.840027 659.821533,655.506348 598.333130,656.018555 
	C578.438965,656.184265 560.968567,663.232910 548.752563,680.328125 
	C545.490845,684.892639 541.173828,688.703125 537.078857,693.099854 
z"/>
<path fill="#010101" opacity="1.000000" stroke="none" 
	d="
M362.596619,309.080750 
	C364.225586,309.246063 365.509247,309.399414 366.792908,309.552765 
	C366.785034,309.796722 366.777130,310.040680 366.769257,310.284637 
	C363.980499,310.284637 361.191711,310.284637 358.402954,310.284637 
	C358.372803,310.030731 358.342682,309.776825 358.312531,309.522888 
	C359.625458,309.371552 360.938416,309.220184 362.596619,309.080750 
z"/>
<path fill="#000000" opacity="1.000000" stroke="none" 
	d="
M696.890503,658.878662 
	C696.343689,658.395447 696.072876,657.941956 695.802063,657.488403 
	C697.361206,657.419434 698.920288,657.350464 700.479431,657.281494 
	C700.529541,657.670349 700.579651,658.059204 700.629761,658.447998 
	C699.475342,658.601501 698.320923,658.754944 696.890503,658.878662 
z"/>
<path fill="#010101" opacity="1.000000" stroke="none" 
	d="
M348.010681,310.719574 
	C347.230499,310.561401 346.687592,310.403992 346.144684,310.246552 
	C346.172546,310.017090 346.200378,309.787659 346.228241,309.558197 
	C347.410583,309.558197 348.592926,309.558197 349.775269,309.558197 
	C349.804749,309.786041 349.834198,310.013885 349.863647,310.241730 
	C349.325104,310.401276 348.786530,310.560791 348.010681,310.719574 
z"/>
<path fill="#000000" opacity="1.000000" stroke="none" 
	d="
M709.630493,657.547607 
	C709.452209,657.974854 709.125916,658.325928 708.799622,658.677063 
	C708.565369,658.361450 708.331055,658.045898 708.096741,657.730347 
	C708.558655,657.644104 709.020508,657.557800 709.630493,657.547607 
z"/>
<path fill="#000000" opacity="1.000000" stroke="none" 
	d="
M719.100464,658.310852 
	C719.521423,657.948975 720.021057,657.688477 720.549622,657.517395 
	C720.609253,657.498047 720.832275,657.983521 720.979553,658.234924 
	C720.382263,658.302795 719.784973,658.370667 719.100464,658.310852 
z"/>
<path fill="#010101" opacity="1.000000" stroke="none" 
	d="
M660.130005,310.384705 
	C660.171692,310.031250 660.332520,309.741943 660.493408,309.452637 
	C660.724548,309.593475 660.955627,309.734314 661.186768,309.875122 
	C660.874207,310.066376 660.561646,310.257629 660.130005,310.384705 
z"/>
<path fill="#000000" opacity="1.000000" stroke="none" 
	d="
M604.946289,657.782715 
	C605.417664,657.747131 605.804321,657.816772 606.191040,657.886414 
	C606.043213,658.099487 605.895325,658.312561 605.747437,658.525635 
	C605.452148,658.313049 605.156860,658.100464 604.946289,657.782715 
z"/>
<path fill="#000000" opacity="1.000000" stroke="none" 
	d="
M684.629517,658.004150 
	C684.877930,657.880737 685.118896,657.856628 685.359863,657.832520 
	C685.351685,657.964478 685.343506,658.096375 685.335266,658.228333 
	C685.097534,658.186707 684.859863,658.145081 684.629517,658.004150 
z"/>
<path fill="#010101" opacity="1.000000" stroke="none" 
	d="
M417.013977,319.969116 
	C417.079376,319.926422 417.159637,319.900360 417.152161,319.943512 
	C417.064362,320.012726 417.028870,319.985748 417.013977,319.969116 
z"/>
<path fill="#000000" opacity="1.000000" stroke="none" 
	d="
M750.965332,658.021729 
	C750.952209,658.004517 750.978516,658.038879 750.965332,658.021729 
z"/>
<path fill="#070707" opacity="1.000000" stroke="none" 
	d="
M557.103394,383.765442 
	C561.276489,380.498627 565.055542,377.056549 569.414490,374.676270 
	C574.243408,372.039276 579.785278,370.727081 584.685242,368.196136 
	C591.124695,364.869965 597.530090,361.988983 604.994141,362.250183 
	C606.772095,362.312408 608.818237,362.076385 610.325928,361.234283 
	C617.255066,357.364075 624.727478,357.196930 632.319702,357.462433 
	C634.474243,357.537781 636.787415,358.018311 638.763428,357.427917 
	C648.974670,354.377075 659.174683,356.998962 669.356201,357.261719 
	C676.965698,357.458130 684.631348,357.939880 692.134216,359.149536 
	C700.548889,360.506195 708.959412,362.342621 717.085571,364.884979 
	C723.111084,366.770111 725.291199,372.799591 723.556335,379.213531 
	C722.099609,384.599091 716.745056,388.458130 710.934082,387.448364 
	C705.746521,386.546875 700.436340,385.322723 695.708069,383.112152 
	C691.466125,381.128937 687.225952,381.174194 682.912170,380.399292 
	C672.944702,378.608765 662.995361,379.399506 653.041077,379.162079 
	C648.446716,379.052429 643.788574,379.728790 639.259155,379.197937 
	C631.273315,378.261963 624.612427,382.757660 617.208923,383.835449 
	C601.343384,386.145203 587.670410,393.822083 573.734436,400.864899 
	C569.442200,403.034027 565.651489,404.806641 560.594666,402.727753 
	C555.263977,400.536163 551.938110,393.687042 554.595276,388.454041 
	C555.348694,386.970306 556.173218,385.522644 557.103394,383.765442 
z"/>
<path fill="#070707" opacity="1.000000" stroke="none" 
	d="
M688.632568,559.027100 
	C684.667480,556.826782 681.037903,556.134888 676.532104,556.695374 
	C672.021301,557.256409 667.251709,555.260071 662.559509,554.973022 
	C657.851868,554.685120 653.084961,554.927917 648.370605,555.287720 
	C640.615601,555.879578 632.871277,556.659912 625.144653,557.552307 
	C621.875305,557.929871 618.441650,558.269775 615.461060,559.525146 
	C601.875854,565.247314 588.561890,571.637573 574.846924,577.013428 
	C570.446106,578.738525 565.049133,578.781250 560.225708,578.331177 
	C555.253113,577.867249 552.927490,572.109192 554.482788,566.407349 
	C556.731628,558.162659 562.879028,554.303955 570.409790,551.592224 
	C576.535400,549.386658 582.424988,546.522949 588.404785,543.917969 
	C589.312805,543.522400 590.086426,542.720032 591.017151,542.489990 
	C600.866699,540.054749 610.625977,536.908569 620.626953,535.520142 
	C632.865662,533.821106 645.304565,533.486267 657.671509,532.838745 
	C661.282471,532.649658 664.956848,533.295837 668.578430,533.748962 
	C682.215149,535.455200 695.848511,537.192322 709.465393,539.048340 
	C711.405518,539.312744 713.275391,540.225830 715.130493,540.958557 
	C724.221069,544.549072 723.170532,547.892456 722.337646,556.087158 
	C721.903687,560.357178 715.806641,563.374207 709.765198,562.567810 
	C702.788330,561.636536 695.871582,560.255249 688.632568,559.027100 
z"/>
<path fill="#070707" opacity="1.000000" stroke="none" 
	d="
M653.080688,436.004517 
	C645.826965,436.970093 639.062195,437.970184 632.283997,438.869385 
	C631.003784,439.039246 629.654358,438.656219 628.364746,438.792267 
	C625.446289,439.100220 622.312988,439.001801 619.675842,440.074005 
	C605.536377,445.822784 591.561462,451.975494 577.439636,457.769012 
	C573.492615,459.388275 569.267944,460.370422 565.119812,461.449493 
	C560.362976,462.686981 556.465210,460.523193 554.778931,455.949066 
	C551.867249,448.051422 553.119995,443.355682 560.170044,438.854858 
	C567.160339,434.392120 574.390686,430.659363 582.730408,428.629303 
	C597.884644,424.940430 612.637573,419.613831 627.773315,415.832581 
	C633.417725,414.422485 639.664795,415.390778 645.637573,415.337738 
	C651.611145,415.284729 657.675903,415.966522 663.539185,415.156769 
	C673.729370,413.749481 682.883484,417.790833 692.494080,419.421417 
	C699.517151,420.613037 706.569214,421.653046 713.630615,422.593903 
	C719.409241,423.363831 724.130432,428.544861 724.296509,434.614319 
	C724.463074,440.698822 721.056519,444.228516 714.720093,445.715424 
	C706.056946,447.748322 698.912781,443.354797 691.221802,441.039490 
	C687.890259,440.036591 684.344238,439.714478 680.877075,439.210571 
	C679.595947,439.024323 677.946899,439.716217 677.001465,439.135437 
	C669.612366,434.596283 661.454773,436.388672 653.080688,436.004517 
z"/>
<path fill="#070707" opacity="1.000000" stroke="none" 
	d="
M377.989563,437.009949 
	C373.535492,437.337738 368.978241,438.432434 364.646729,437.849487 
	C351.677094,436.103760 339.673065,439.218018 327.459595,443.002716 
	C321.312195,444.907654 314.320526,445.013123 307.841827,444.442657 
	C305.443604,444.231476 302.440460,440.087402 301.442047,437.149506 
	C299.655121,431.891083 301.870422,426.763672 306.754761,424.439087 
	C311.654144,422.107422 316.958649,420.348846 322.273254,419.233368 
	C330.156769,417.578766 338.170135,416.149658 346.192566,415.642731 
	C358.081055,414.891571 370.135986,413.915375 381.918793,415.076782 
	C396.530945,416.516968 411.033997,419.606812 425.405182,422.791779 
	C439.098053,425.826447 452.319977,430.785065 463.995026,438.606842 
	C467.658630,441.061279 470.262146,446.313873 471.545929,450.802032 
	C473.213684,456.632538 468.366119,462.013733 462.344421,461.643768 
	C457.956909,461.374176 453.445374,460.294312 449.349548,458.667999 
	C439.379730,454.709259 430.234741,449.090485 419.835388,445.709503 
	C411.596802,443.030975 403.421631,441.566956 395.025818,440.263794 
	C390.982819,439.636230 387.089172,438.089783 383.088684,437.121307 
	C381.686218,436.781769 380.166626,436.926208 378.189575,436.843384 
	C377.342590,436.746368 377.006531,436.655579 376.670471,436.564758 
	C376.653625,436.637451 376.636810,436.710144 376.619965,436.782837 
	C377.076508,436.858551 377.533020,436.934265 377.989563,437.009949 
M364.719788,436.119232 
	C364.415161,436.159973 364.110565,436.200714 363.805939,436.241486 
	C363.894592,436.432404 363.983215,436.623291 364.071838,436.814209 
	C364.373688,436.598694 364.675537,436.383179 364.719788,436.119232 
z"/>
<path fill="#070707" opacity="1.000000" stroke="none" 
	d="
M464.416656,521.258301 
	C449.943115,518.818481 437.398926,512.099365 424.359589,506.818146 
	C414.644409,502.883209 404.534027,500.837128 394.301117,499.113647 
	C386.859467,497.860291 379.417542,495.743744 371.959412,495.670288 
	C362.466675,495.576721 352.921051,496.879303 343.468872,498.118805 
	C337.675781,498.878510 332.044708,500.802216 326.284088,501.907135 
	C322.709747,502.592682 319.034180,502.946777 315.394562,503.028687 
	C312.818726,503.086639 309.949554,503.039612 307.694000,501.996094 
	C300.668304,498.745697 299.616028,492.280701 305.559906,487.450134 
	C312.722473,481.629089 320.826599,477.750183 330.425629,477.334045 
	C347.690826,476.585510 364.930664,475.144257 382.199860,474.653290 
	C388.197540,474.482788 394.272278,476.147217 400.274109,477.190613 
	C411.008606,479.056671 422.155670,479.823761 432.319611,483.372192 
	C444.758148,487.714813 456.623840,493.969025 468.229279,500.324249 
	C475.060089,504.064819 476.170837,512.500427 471.456787,517.943115 
	C469.947174,519.686096 467.052490,520.229431 464.416656,521.258301 
z"/>
<path fill="#070707" opacity="1.000000" stroke="none" 
	d="
M329.652466,537.793091 
	C339.461121,533.299072 349.417328,533.448914 359.512512,533.814209 
	C372.294800,534.276672 385.209167,533.202209 397.857758,534.634644 
	C409.867615,535.994751 421.976044,538.712463 433.329285,542.807068 
	C440.149384,545.266785 446.206451,549.596619 453.738678,551.284912 
	C460.545654,552.810547 467.665649,556.180481 470.004852,563.881653 
	C471.251648,567.986328 471.022858,572.600708 470.975586,576.979736 
	C470.967163,577.760254 468.443359,579.338379 467.319092,579.147339 
	C460.363007,577.965149 453.193359,577.154236 446.627960,574.758545 
	C435.772034,570.797180 425.372620,565.600281 414.661652,561.215088 
	C411.964935,560.111084 408.821320,560.077148 405.872528,559.619507 
	C404.403687,559.391541 402.797699,559.625122 401.446228,559.127319 
	C384.655579,552.942627 367.095459,552.025085 350.116394,555.763611 
	C340.349762,557.914062 329.685455,556.951050 320.553497,562.937439 
	C315.266876,566.403015 309.009888,563.187134 304.003357,560.913330 
	C299.897827,559.048767 300.305939,553.759277 301.175537,549.603577 
	C302.170837,544.847351 305.679352,542.325623 310.237946,541.393860 
	C316.553680,540.102966 322.915314,539.036682 329.652466,537.793091 
z"/>
<path fill="#070707" opacity="1.000000" stroke="none" 
	d="
M351.000610,598.000000 
	C349.615112,597.938049 348.228973,597.876099 346.842865,597.814148 
	C346.869263,597.589172 346.895630,597.364136 346.922028,597.139160 
	C348.086365,597.346741 349.250702,597.554321 350.707458,597.880920 
	C350.999908,598.000000 351.000000,598.000000 351.000610,598.000000 
z"/>
<path fill="#070707" opacity="1.000000" stroke="none" 
	d="
M319.006073,445.437775 
	C319.043610,445.440063 318.968536,445.435486 319.006073,445.437775 
z"/>
<path fill="#010101" opacity="1.000000" stroke="none" 
	d="
M364.848572,436.143433 
	C364.675537,436.383179 364.373688,436.598694 364.071838,436.814209 
	C363.983215,436.623291 363.894592,436.432404 363.805939,436.241486 
	C364.110565,436.200714 364.415161,436.159973 364.848572,436.143433 
z"/>
<path fill="#010101" opacity="1.000000" stroke="none" 
	d="
M377.994141,437.005615 
	C377.533020,436.934265 377.076508,436.858551 376.619965,436.782837 
	C376.636810,436.710144 376.653625,436.637451 376.670471,436.564758 
	C377.006531,436.655579 377.342590,436.746368 377.840149,436.916077 
	C378.001617,436.994995 377.998718,437.001251 377.994141,437.005615 
z"/>
</svg>