<svg version="1.1" id="Layer_1" xmlns="http://www.w3.org/2000/svg" xmlns:xlink="http://www.w3.org/1999/xlink" x="0px" y="0px"
	 width="100%" viewBox="0 0 1024 1024" enable-background="new 0 0 1024 1024" xml:space="preserve">
<path fill="#000000" opacity="1.000000" stroke="none" 
	d="
M509.359314,570.000122 
	C509.532379,599.827393 509.821625,629.154602 509.836365,658.481934 
	C509.846344,678.308899 509.481964,698.136108 509.250305,717.962830 
	C509.221924,720.392822 509.876312,723.267761 507.034271,724.611267 
	C504.456726,725.829895 502.636871,723.762878 500.827545,722.406677 
	C483.582703,709.480530 465.445221,698.064941 445.867798,688.935974 
	C415.984955,675.001526 384.560791,666.886353 351.873932,663.283691 
	C348.084259,662.866028 344.312622,662.159424 340.582428,661.355652 
	C334.140625,659.967590 330.769867,655.894226 330.687744,649.440491 
	C329.903076,587.785400 330.546600,526.129944 330.705536,464.474762 
	C330.724518,457.108734 335.871613,452.264709 343.651123,452.382141 
	C400.901703,453.246582 454.234436,467.231140 502.171265,499.547150 
	C507.263977,502.980377 509.549957,506.671661 509.418701,513.004395 
	C509.028412,531.828613 509.328400,550.667114 509.359314,570.000122 
z"/>
<path fill="#000000" opacity="1.000000" stroke="none" 
	d="
M595.927979,464.790161 
	C617.381592,458.879608 638.663330,454.541229 660.597412,453.485504 
	C667.904907,453.133728 675.205322,452.620117 682.520813,452.687408 
	C690.286865,452.758820 694.068420,456.763855 694.359436,464.348450 
	C695.746521,500.496704 695.159241,536.658203 694.754700,572.805298 
	C694.467468,598.464722 694.583618,624.121826 694.349426,649.778809 
	C694.287964,656.508423 691.728760,659.812927 684.986084,661.244019 
	C671.644531,664.075562 658.033875,665.211670 644.635681,667.874329 
	C602.585510,676.230896 564.535583,693.341492 530.060059,718.658020 
	C527.644165,720.432007 525.230835,722.239380 522.656311,723.760376 
	C518.887878,725.986877 517.257080,725.008606 516.901245,720.553711 
	C516.835083,719.725098 516.864258,718.888123 516.863159,718.055054 
	C516.770325,648.566223 516.718689,579.077271 516.491943,509.588867 
	C516.477783,505.260071 518.290344,502.943634 521.607483,500.755707 
	C544.677490,485.539001 569.198242,473.352539 595.927979,464.790161 
z"/>
<path fill="#000000" opacity="1.000000" stroke="none" 
	d="
M514.873779,452.075012 
	C476.805328,452.042694 449.596497,425.966003 442.405151,397.344147 
	C432.953674,359.727112 452.983032,322.694977 488.426788,310.126648 
	C529.290405,295.636414 575.688660,319.637207 584.096497,365.045807 
	C591.532043,405.203339 567.498413,441.024567 527.687805,450.417053 
	C523.663940,451.366455 519.455994,451.535431 514.873779,452.075012 
z"/>
</svg>